<?xml version="1.0" encoding="utf-8"?>
<!-- Generator: Adobe Illustrator 21.1.0, SVG Export Plug-In . SVG Version: 6.00 Build 0)  -->
<svg version="1.1" id="Layer_1" xmlns="http://www.w3.org/2000/svg" xmlns:xlink="http://www.w3.org/1999/xlink" x="0px" y="0px"
	 viewBox="0 0 14 11" style="enable-background:new 0 0 14 11;" xml:space="preserve">
<style type="text/css">
	.st0{fill:#000000;}
</style>
<g>
	<path class="st0" d="M12.3,6.1H0.6C0.3,6.1,0,5.8,0,5.5s0.3-0.6,0.6-0.6h11.7c0.3,0,0.6,0.3,0.6,0.6S12.6,6.1,12.3,6.1z"/>
	<path class="st0" d="M8.8,10.8c-0.1,0-0.3-0.1-0.4-0.2c-0.2-0.2-0.2-0.6,0-0.8l4.3-4.3L8.3,1.2C8.1,1,8.1,0.6,8.3,0.4
		s0.6-0.2,0.8,0l4.7,4.7c0.2,0.2,0.2,0.6,0,0.8l-4.7,4.7C9,10.7,8.9,10.8,8.8,10.8z"/>
</g>
</svg>
