<?xml version="1.0" encoding="utf-8"?>
<!-- Generator: Adobe Illustrator 21.1.0, SVG Export Plug-In . SVG Version: 6.00 Build 0)  -->
<svg version="1.1" id="Layer_1" xmlns="http://www.w3.org/2000/svg" xmlns:xlink="http://www.w3.org/1999/xlink" x="0px" y="0px"
	 viewBox="0 0 24 24" style="enable-background:new 0 0 24 24;" xml:space="preserve">
<style type="text/css">
	.st0{fill:#000000;}
</style>
<g>
	<path class="st0" d="M12,3c2.9,0,3.3,0,4.4,0.1c1.1,0,1.7,0.2,2,0.4c0.5,0.2,0.9,0.4,1.3,0.8c0.4,0.4,0.6,0.8,0.8,1.3
		c0.2,0.4,0.3,1,0.4,2C21,8.7,21,9.1,21,12c0,2.9,0,3.3-0.1,4.4c0,1.1-0.2,1.7-0.4,2c-0.2,0.5-0.4,0.9-0.8,1.3
		c-0.4,0.4-0.8,0.6-1.3,0.8c-0.4,0.2-1,0.3-2,0.4C15.3,21,14.9,21,12,21c-2.9,0-3.3,0-4.4-0.1c-1.1,0-1.7-0.2-2-0.4
		c-0.5-0.2-0.9-0.4-1.3-0.8c-0.4-0.4-0.6-0.8-0.8-1.3c-0.2-0.4-0.3-1-0.4-2C3,15.3,3,14.9,3,12C3,9.1,3,8.7,3,7.6
		c0-1.1,0.2-1.7,0.4-2C3.6,5,3.9,4.6,4.2,4.2C4.6,3.9,5,3.6,5.5,3.4c0.4-0.2,1-0.3,2-0.4C8.7,3,9.1,3,12,3 M12,1C9,1,8.6,1,7.5,1.1
		c-1.2,0.1-2,0.2-2.7,0.5C4.1,1.9,3.5,2.2,2.8,2.8c-0.6,0.6-1,1.2-1.3,1.9C1.3,5.5,1.1,6.3,1.1,7.5C1,8.6,1,9,1,12
		c0,3,0,3.4,0.1,4.5c0.1,1.2,0.2,2,0.5,2.7c0.3,0.7,0.7,1.3,1.3,1.9c0.6,0.6,1.2,1,1.9,1.3c0.7,0.3,1.5,0.5,2.7,0.5
		C8.6,23,9,23,12,23c3,0,3.4,0,4.5-0.1c1.2-0.1,2-0.2,2.7-0.5c0.7-0.3,1.3-0.7,1.9-1.3c0.6-0.6,1-1.2,1.3-1.9
		c0.3-0.7,0.5-1.5,0.5-2.7C23,15.4,23,15,23,12c0-3,0-3.4-0.1-4.5c-0.1-1.2-0.2-2-0.5-2.7c-0.3-0.7-0.7-1.3-1.3-1.9
		c-0.6-0.6-1.2-1-1.9-1.3c-0.7-0.3-1.5-0.5-2.7-0.5C15.4,1,15,1,12,1"/>
	<path class="st0" d="M12,6.4c-3.1,0-5.6,2.5-5.6,5.6c0,3.1,2.5,5.6,5.6,5.6c3.1,0,5.6-2.5,5.6-5.6C17.6,8.9,15.1,6.4,12,6.4
		 M12,15.7c-2,0-3.7-1.6-3.7-3.7c0-2,1.6-3.7,3.7-3.7c2,0,3.7,1.6,3.7,3.7C15.7,14,14,15.7,12,15.7"/>
	<path class="st0" d="M19.2,6.1c0,0.7-0.6,1.3-1.3,1.3c-0.7,0-1.3-0.6-1.3-1.3c0-0.7,0.6-1.3,1.3-1.3C18.6,4.8,19.2,5.4,19.2,6.1"/>
</g>
</svg>
