<?xml version="1.0" encoding="utf-8"?>
<!-- Generator: Adobe Illustrator 22.1.0, SVG Export Plug-In . SVG Version: 6.00 Build 0)  -->
<svg version="1.1" id="Layer_1" xmlns="http://www.w3.org/2000/svg" xmlns:xlink="http://www.w3.org/1999/xlink" x="0px" y="0px"
	 viewBox="0 0 24 24" style="enable-background:new 0 0 24 24;" xml:space="preserve">
<style type="text/css">
	.st0{fill:#000000;}
</style>
<g>
	<path class="st0" d="M23.8,23.7L23.8,23.7L23.8,23.7v-8.6c0-4.2-0.9-7.5-5.9-7.5c-2.4,0-4,1.3-4.6,2.5h-0.1V8H8.6v15.7h4.9v-7.8
		c0-2.1,0.4-4,2.9-4s2.5,2.3,2.5,4.2v7.7L23.8,23.7z"/>
	<path class="st0" d="M0.6,8h4.9v15.7H0.6V8z"/>
	<path class="st0" d="M3.1,0.1c-1.6,0-2.8,1.3-2.8,2.8s1.3,2.9,2.8,2.9s2.8-1.3,2.8-2.9C5.9,1.4,4.6,0.1,3.1,0.1z"/>
</g>
</svg>
