<?xml version="1.0" encoding="utf-8"?>
<!-- Generator: Adobe Illustrator 21.1.0, SVG Export Plug-In . SVG Version: 6.00 Build 0)  -->
<svg version="1.1" id="Layer_1" xmlns="http://www.w3.org/2000/svg" xmlns:xlink="http://www.w3.org/1999/xlink" x="0px" y="0px"
	 viewBox="0 0 15 17" style="enable-background:new 0 0 15 17;" xml:space="preserve">
<style type="text/css">
	.st0{fill:#000000;}
</style>
<g>
	<path class="st0" d="M14.1,0C10.5,0,3.9,0,3.4,0C2.8,0,2.8,0.5,2.8,1.1c0,0.9,0,2.8,0,2.8s0.8,0,1.3,0c0-0.9,0-1.8,0-2.7
		c3.1,0,6.2,0,9.3,0c0,4.9,0,9.7,0,14.6c-3.1,0-6.2,0-9.3,0c0-0.9,0-1.7,0-2.6c-0.4,0-0.8,0-1.2,0c0,0.9,0,1.8,0,2.7
		c0,0.6,0.1,1.1,0.6,1.1c0.1,0,7.1,0,10.6,0c0.5,0,0.6,0,0.6-0.5c0-5.3,0-10.6,0-16C14.7,0.1,14.4,0,14.1,0z"/>
	<path class="st0" d="M9.9,9.1C9.8,9.2,9.7,9.2,9.7,9.3c-0.7,0.6-1.3,1.2-2,1.9c-0.2,0.2-0.3,0.5-0.1,0.7c0.2,0.2,0.5,0.3,0.8,0.2
		c0.1,0,0.2-0.1,0.3-0.2c1-1,2.1-2,3.1-2.9c0.3-0.3,0.3-0.6,0-1c-1-1-2.1-2-3.1-2.9c-0.3-0.3-0.7-0.3-1,0C7.4,5.3,7.5,5.6,7.8,5.9
		c0.6,0.6,1.3,1.2,1.9,1.8c0,0,0.1,0.1,0.2,0.2l-9.2,0C0.5,7.9,0.3,8,0.3,8.2v0.5c0,0.2,0.1,0.3,0.3,0.3C0.7,9.1,9.7,9.1,9.9,9.1z"
		/>
</g>
</svg>
