<svg xmlns="http://www.w3.org/2000/svg" xmlns:xlink="http://www.w3.org/1999/xlink" width="1080" zoomAndPan="magnify"
     viewBox="0 0 810 809.999993" height="1080" preserveAspectRatio="xMidYMid meet" version="1.0">
    <defs>
        <g/>
        <clipPath id="baec01502c">
            <path d="M 348.761719 330.554688 L 461.261719 330.554688 L 461.261719 437.804688 L 348.761719 437.804688 Z M 348.761719 330.554688 "
                  clip-rule="nonzero"/>
        </clipPath>
    </defs>
    <g clip-path="url(#baec01502c)">
        <path fill="#243a50"
              d="M 408.214844 396.191406 C 408.214844 384.273438 406.554688 379.75 391.917969 379.75 L 391.917969 378.238281 L 426.320312 378.238281 L 426.320312 436.171875 L 424.058594 436.171875 C 421.945312 428.179688 411.839844 424.40625 408.0625 424.40625 C 405.949219 429.386719 399.765625 437.53125 384.074219 437.53125 C 362.652344 437.53125 349.222656 428.628906 349.074219 395.738281 L 348.921875 370.695312 C 348.773438 337.804688 360.539062 330.5625 394.484375 330.5625 C 414.097656 330.5625 417.265625 330.5625 424.507812 330.5625 L 424.507812 362.847656 L 422.246094 362.847656 C 422.246094 350.023438 412.441406 332.824219 392.675781 332.824219 C 372.761719 332.824219 367.632812 345.347656 367.933594 374.769531 L 368.082031 393.324219 C 368.386719 422.746094 379.851562 428.628906 389.960938 428.628906 L 391.621094 428.628906 C 402.632812 428.628906 408.214844 418.066406 408.214844 407.960938 Z M 451.890625 362.546875 L 454.152344 362.546875 L 454.152344 330.5625 L 426.875 330.5625 L 426.875 333.082031 C 441.847656 335.101562 451.890625 348.886719 451.890625 362.546875 Z M 428.65625 371.296875 C 409.347656 363.753906 404.214844 356.660156 404.214844 348.0625 C 404.214844 344.382812 405.179688 341.433594 406.875 339.144531 C 404.035156 337.351562 400.726562 336.050781 396.917969 335.496094 C 391.730469 338.910156 388.070312 344.671875 388.070312 354.398438 C 388.070312 362.402344 390.539062 369.578125 397.484375 375.867188 L 428.683594 375.867188 L 428.683594 392.097656 C 440.445312 398.59375 444.042969 405.871094 444.042969 413.992188 C 444.042969 424.097656 438.789062 431.578125 428.683594 433.351562 L 428.683594 436.085938 C 450.261719 435.1875 461.242188 426.878906 461.242188 408.261719 C 461.246094 389.554688 449.476562 379.445312 428.65625 371.296875 Z M 428.65625 371.296875 "
              fill-opacity="1" fill-rule="nonzero"/>
    </g>
    <g fill="#001f3d" fill-opacity="1">
        <g transform="translate(289.806287, 456.927909)">
            <g>
                <path d="M 5.078125 -4.75 C 4.910156 -5.019531 4.703125 -5.21875 4.453125 -5.34375 C 4.210938 -5.476562 3.910156 -5.546875 3.546875 -5.546875 C 2.953125 -5.546875 2.519531 -5.351562 2.25 -4.96875 C 1.976562 -4.582031 1.84375 -4.007812 1.84375 -3.25 C 1.84375 -2.488281 1.972656 -1.929688 2.234375 -1.578125 C 2.503906 -1.222656 2.9375 -1.046875 3.53125 -1.046875 C 3.96875 -1.046875 4.375 -1.140625 4.75 -1.328125 L 4.75 -2.359375 L 3.46875 -2.359375 L 3.46875 -3.546875 L 6.109375 -3.546875 L 6.109375 -0.625 C 5.796875 -0.394531 5.410156 -0.207031 4.953125 -0.0625 C 4.503906 0.0703125 4.039062 0.140625 3.5625 0.140625 C 2.53125 0.140625 1.753906 -0.125 1.234375 -0.65625 C 0.710938 -1.195312 0.453125 -2.0625 0.453125 -3.25 C 0.453125 -5.570312 1.476562 -6.734375 3.53125 -6.734375 C 4.132812 -6.734375 4.65625 -6.632812 5.09375 -6.4375 C 5.539062 -6.238281 5.878906 -5.945312 6.109375 -5.5625 Z M 5.078125 -4.75 "/>
            </g>
        </g>
    </g>
    <g fill="#001f3d" fill-opacity="1">
        <g transform="translate(296.55084, 456.927909)">
            <g>
                <path d="M 6.09375 -3.296875 C 6.09375 -2.148438 5.847656 -1.289062 5.359375 -0.71875 C 4.878906 -0.144531 4.175781 0.140625 3.25 0.140625 C 2.269531 0.140625 1.550781 -0.160156 1.09375 -0.765625 C 0.632812 -1.367188 0.40625 -2.210938 0.40625 -3.296875 C 0.40625 -4.390625 0.632812 -5.234375 1.09375 -5.828125 C 1.550781 -6.429688 2.269531 -6.734375 3.25 -6.734375 C 4.226562 -6.734375 4.945312 -6.429688 5.40625 -5.828125 C 5.863281 -5.234375 6.09375 -4.390625 6.09375 -3.296875 Z M 4.703125 -3.296875 C 4.703125 -4.078125 4.59375 -4.644531 4.375 -5 C 4.15625 -5.363281 3.78125 -5.546875 3.25 -5.546875 C 2.71875 -5.546875 2.34375 -5.363281 2.125 -5 C 1.90625 -4.644531 1.796875 -4.078125 1.796875 -3.296875 C 1.796875 -2.515625 1.90625 -1.941406 2.125 -1.578125 C 2.351562 -1.222656 2.726562 -1.046875 3.25 -1.046875 C 3.78125 -1.046875 4.15625 -1.222656 4.375 -1.578125 C 4.59375 -1.941406 4.703125 -2.515625 4.703125 -3.296875 Z M 4.703125 -3.296875 "/>
            </g>
        </g>
    </g>
    <g fill="#001f3d" fill-opacity="1">
        <g transform="translate(303.052297, 456.927909)">
            <g>
                <path d="M 0.71875 0 L 0.71875 -6.59375 L 2.0625 -6.59375 L 2.0625 -1.234375 L 4.828125 -1.234375 L 4.828125 0 Z M 0.71875 0 "/>
            </g>
        </g>
    </g>
    <g fill="#001f3d" fill-opacity="1">
        <g transform="translate(307.999886, 456.927909)">
            <g>
                <path d="M 5.84375 -3.296875 C 5.84375 -2.503906 5.734375 -1.863281 5.515625 -1.375 C 5.296875 -0.894531 4.960938 -0.546875 4.515625 -0.328125 C 4.078125 -0.109375 3.460938 0 2.671875 0 L 0.65625 0 L 0.65625 -6.59375 L 2.640625 -6.59375 C 3.421875 -6.59375 4.039062 -6.476562 4.5 -6.25 C 4.957031 -6.03125 5.296875 -5.679688 5.515625 -5.203125 C 5.734375 -4.722656 5.84375 -4.085938 5.84375 -3.296875 Z M 4.46875 -3.3125 C 4.46875 -3.882812 4.410156 -4.304688 4.296875 -4.578125 C 4.179688 -4.859375 3.988281 -5.0625 3.71875 -5.1875 C 3.445312 -5.3125 3.046875 -5.375 2.515625 -5.375 L 2 -5.375 L 2 -1.234375 L 2.515625 -1.234375 C 3.046875 -1.234375 3.445312 -1.289062 3.71875 -1.40625 C 3.988281 -1.53125 4.179688 -1.734375 4.296875 -2.015625 C 4.410156 -2.304688 4.46875 -2.738281 4.46875 -3.3125 Z M 4.46875 -3.3125 "/>
            </g>
        </g>
    </g>
    <g fill="#001f3d" fill-opacity="1">
        <g transform="translate(314.258259, 456.927909)">
            <g>
                <path d="M 0.71875 0 L 0.71875 -6.59375 L 5 -6.59375 L 5 -5.40625 L 2.0625 -5.40625 L 2.0625 -4 L 4.546875 -4 L 4.546875 -2.8125 L 2.0625 -2.8125 L 2.0625 -1.234375 L 5 -1.234375 L 5 0 Z M 0.71875 0 "/>
            </g>
        </g>
    </g>
    <g fill="#001f3d" fill-opacity="1">
        <g transform="translate(319.734932, 456.927909)">
            <g>
                <path d="M 4.4375 0 L 2.03125 -4.71875 L 2.03125 0 L 0.71875 0 L 0.71875 -6.59375 L 2.453125 -6.59375 L 4.703125 -2.15625 L 4.703125 -6.59375 L 6.015625 -6.59375 L 6.015625 0 Z M 4.4375 0 "/>
            </g>
        </g>
    </g>
    <g fill="#001f3d" fill-opacity="1">
        <g transform="translate(326.460418, 456.927909)">
            <g/>
        </g>
    </g>
    <g fill="#001f3d" fill-opacity="1">
        <g transform="translate(328.805519, 456.927909)">
            <g>
                <path d="M 5.453125 -1.90625 C 5.453125 -1.25 5.234375 -0.742188 4.796875 -0.390625 C 4.367188 -0.0351562 3.734375 0.140625 2.890625 0.140625 C 2.304688 0.140625 1.796875 0.046875 1.359375 -0.140625 C 0.929688 -0.335938 0.582031 -0.65625 0.3125 -1.09375 L 1.34375 -1.890625 C 1.5 -1.671875 1.644531 -1.503906 1.78125 -1.390625 C 1.914062 -1.285156 2.078125 -1.203125 2.265625 -1.140625 C 2.453125 -1.078125 2.671875 -1.046875 2.921875 -1.046875 C 3.285156 -1.046875 3.566406 -1.109375 3.765625 -1.234375 C 3.972656 -1.367188 4.078125 -1.5625 4.078125 -1.8125 C 4.078125 -1.957031 4.039062 -2.078125 3.96875 -2.171875 C 3.894531 -2.273438 3.785156 -2.363281 3.640625 -2.4375 C 3.503906 -2.507812 3.257812 -2.59375 2.90625 -2.6875 C 2.5625 -2.78125 2.238281 -2.875 1.9375 -2.96875 C 1.632812 -3.0625 1.367188 -3.179688 1.140625 -3.328125 C 0.921875 -3.472656 0.75 -3.660156 0.625 -3.890625 C 0.5 -4.117188 0.4375 -4.40625 0.4375 -4.75 C 0.4375 -5.375 0.644531 -5.859375 1.0625 -6.203125 C 1.488281 -6.554688 2.097656 -6.734375 2.890625 -6.734375 C 4.023438 -6.734375 4.832031 -6.34375 5.3125 -5.5625 L 4.28125 -4.765625 C 4.101562 -5.046875 3.898438 -5.242188 3.671875 -5.359375 C 3.453125 -5.484375 3.1875 -5.546875 2.875 -5.546875 C 2.5625 -5.546875 2.304688 -5.488281 2.109375 -5.375 C 1.910156 -5.257812 1.8125 -5.082031 1.8125 -4.84375 C 1.8125 -4.632812 1.910156 -4.472656 2.109375 -4.359375 C 2.316406 -4.242188 2.675781 -4.128906 3.1875 -4.015625 C 3.46875 -3.941406 3.742188 -3.863281 4.015625 -3.78125 C 4.285156 -3.695312 4.523438 -3.578125 4.734375 -3.421875 C 4.953125 -3.273438 5.125 -3.082031 5.25 -2.84375 C 5.382812 -2.601562 5.453125 -2.289062 5.453125 -1.90625 Z M 5.453125 -1.90625 "/>
            </g>
        </g>
    </g>
    <g fill="#001f3d" fill-opacity="1">
        <g transform="translate(334.663509, 456.927909)">
            <g>
                <path d="M 5.53125 -4.390625 C 5.53125 -3.585938 5.34375 -2.992188 4.96875 -2.609375 C 4.601562 -2.234375 4 -2.046875 3.15625 -2.046875 L 2.0625 -2.046875 L 2.0625 0 L 0.71875 0 L 0.71875 -6.59375 L 3.1875 -6.59375 C 3.9375 -6.59375 4.515625 -6.421875 4.921875 -6.078125 C 5.328125 -5.734375 5.53125 -5.171875 5.53125 -4.390625 Z M 4.15625 -4.375 C 4.15625 -4.75 4.050781 -5.019531 3.84375 -5.1875 C 3.632812 -5.351562 3.265625 -5.4375 2.734375 -5.4375 L 2.0625 -5.4375 L 2.0625 -3.21875 L 2.609375 -3.21875 C 3.097656 -3.21875 3.4375 -3.25 3.625 -3.3125 C 3.820312 -3.382812 3.957031 -3.5 4.03125 -3.65625 C 4.113281 -3.820312 4.15625 -4.0625 4.15625 -4.375 Z M 4.15625 -4.375 "/>
            </g>
        </g>
    </g>
    <g fill="#001f3d" fill-opacity="1">
        <g transform="translate(340.569163, 456.927909)">
            <g>
                <path d="M 0.71875 0 L 0.71875 -6.59375 L 5 -6.59375 L 5 -5.40625 L 2.0625 -5.40625 L 2.0625 -4 L 4.546875 -4 L 4.546875 -2.8125 L 2.0625 -2.8125 L 2.0625 -1.234375 L 5 -1.234375 L 5 0 Z M 0.71875 0 "/>
            </g>
        </g>
    </g>
    <g fill="#001f3d" fill-opacity="1">
        <g transform="translate(346.045836, 456.927909)">
            <g>
                <path d="M 0.71875 0 L 0.71875 -6.59375 L 5 -6.59375 L 5 -5.40625 L 2.0625 -5.40625 L 2.0625 -4 L 4.546875 -4 L 4.546875 -2.8125 L 2.0625 -2.8125 L 2.0625 -1.234375 L 5 -1.234375 L 5 0 Z M 0.71875 0 "/>
            </g>
        </g>
    </g>
    <g fill="#001f3d" fill-opacity="1">
        <g transform="translate(351.522509, 456.927909)">
            <g>
                <path d="M 5.84375 -3.296875 C 5.84375 -2.503906 5.734375 -1.863281 5.515625 -1.375 C 5.296875 -0.894531 4.960938 -0.546875 4.515625 -0.328125 C 4.078125 -0.109375 3.460938 0 2.671875 0 L 0.65625 0 L 0.65625 -6.59375 L 2.640625 -6.59375 C 3.421875 -6.59375 4.039062 -6.476562 4.5 -6.25 C 4.957031 -6.03125 5.296875 -5.679688 5.515625 -5.203125 C 5.734375 -4.722656 5.84375 -4.085938 5.84375 -3.296875 Z M 4.46875 -3.3125 C 4.46875 -3.882812 4.410156 -4.304688 4.296875 -4.578125 C 4.179688 -4.859375 3.988281 -5.0625 3.71875 -5.1875 C 3.445312 -5.3125 3.046875 -5.375 2.515625 -5.375 L 2 -5.375 L 2 -1.234375 L 2.515625 -1.234375 C 3.046875 -1.234375 3.445312 -1.289062 3.71875 -1.40625 C 3.988281 -1.53125 4.179688 -1.734375 4.296875 -2.015625 C 4.410156 -2.304688 4.46875 -2.738281 4.46875 -3.3125 Z M 4.46875 -3.3125 "/>
            </g>
        </g>
    </g>
    <g fill="#001f3d" fill-opacity="1">
        <g transform="translate(357.780882, 456.927909)">
            <g/>
        </g>
    </g>
    <g fill="#001f3d" fill-opacity="1">
        <g transform="translate(360.125982, 456.927909)">
            <g>
                <path d="M 5.9375 0 L 5.9375 -4.4375 L 4.359375 -1.671875 L 3.578125 -1.671875 L 2.015625 -4.4375 L 2.015625 0 L 0.71875 0 L 0.71875 -6.59375 L 2.265625 -6.59375 L 3.984375 -3.46875 L 5.71875 -6.59375 L 7.234375 -6.59375 L 7.234375 0 Z M 5.9375 0 "/>
            </g>
        </g>
    </g>
    <g fill="#001f3d" fill-opacity="1">
        <g transform="translate(368.071683, 456.927909)">
            <g>
                <path d="M 0.125 0 L 2.3125 -6.59375 L 4.0625 -6.59375 L 6.25 0 L 4.875 0 L 4.4375 -1.34375 L 1.890625 -1.34375 L 1.46875 0 Z M 2.28125 -2.515625 L 4.046875 -2.515625 L 3.171875 -5.25 Z M 2.28125 -2.515625 "/>
            </g>
        </g>
    </g>
    <g fill="#001f3d" fill-opacity="1">
        <g transform="translate(374.444451, 456.927909)">
            <g>
                <path d="M 4.4375 0 L 2.03125 -4.71875 L 2.03125 0 L 0.71875 0 L 0.71875 -6.59375 L 2.453125 -6.59375 L 4.703125 -2.15625 L 4.703125 -6.59375 L 6.015625 -6.59375 L 6.015625 0 Z M 4.4375 0 "/>
            </g>
        </g>
    </g>
    <g fill="#001f3d" fill-opacity="1">
        <g transform="translate(381.169938, 456.927909)">
            <g>
                <path d="M 0.125 0 L 2.3125 -6.59375 L 4.0625 -6.59375 L 6.25 0 L 4.875 0 L 4.4375 -1.34375 L 1.890625 -1.34375 L 1.46875 0 Z M 2.28125 -2.515625 L 4.046875 -2.515625 L 3.171875 -5.25 Z M 2.28125 -2.515625 "/>
            </g>
        </g>
    </g>
    <g fill="#001f3d" fill-opacity="1">
        <g transform="translate(387.542706, 456.927909)">
            <g>
                <path d="M 5.078125 -4.75 C 4.910156 -5.019531 4.703125 -5.21875 4.453125 -5.34375 C 4.210938 -5.476562 3.910156 -5.546875 3.546875 -5.546875 C 2.953125 -5.546875 2.519531 -5.351562 2.25 -4.96875 C 1.976562 -4.582031 1.84375 -4.007812 1.84375 -3.25 C 1.84375 -2.488281 1.972656 -1.929688 2.234375 -1.578125 C 2.503906 -1.222656 2.9375 -1.046875 3.53125 -1.046875 C 3.96875 -1.046875 4.375 -1.140625 4.75 -1.328125 L 4.75 -2.359375 L 3.46875 -2.359375 L 3.46875 -3.546875 L 6.109375 -3.546875 L 6.109375 -0.625 C 5.796875 -0.394531 5.410156 -0.207031 4.953125 -0.0625 C 4.503906 0.0703125 4.039062 0.140625 3.5625 0.140625 C 2.53125 0.140625 1.753906 -0.125 1.234375 -0.65625 C 0.710938 -1.195312 0.453125 -2.0625 0.453125 -3.25 C 0.453125 -5.570312 1.476562 -6.734375 3.53125 -6.734375 C 4.132812 -6.734375 4.65625 -6.632812 5.09375 -6.4375 C 5.539062 -6.238281 5.878906 -5.945312 6.109375 -5.5625 Z M 5.078125 -4.75 "/>
            </g>
        </g>
    </g>
    <g fill="#001f3d" fill-opacity="1">
        <g transform="translate(394.287258, 456.927909)">
            <g>
                <path d="M 0.71875 0 L 0.71875 -6.59375 L 5 -6.59375 L 5 -5.40625 L 2.0625 -5.40625 L 2.0625 -4 L 4.546875 -4 L 4.546875 -2.8125 L 2.0625 -2.8125 L 2.0625 -1.234375 L 5 -1.234375 L 5 0 Z M 0.71875 0 "/>
            </g>
        </g>
    </g>
    <g fill="#001f3d" fill-opacity="1">
        <g transform="translate(399.763931, 456.927909)">
            <g>
                <path d="M 5.9375 0 L 5.9375 -4.4375 L 4.359375 -1.671875 L 3.578125 -1.671875 L 2.015625 -4.4375 L 2.015625 0 L 0.71875 0 L 0.71875 -6.59375 L 2.265625 -6.59375 L 3.984375 -3.46875 L 5.71875 -6.59375 L 7.234375 -6.59375 L 7.234375 0 Z M 5.9375 0 "/>
            </g>
        </g>
    </g>
    <g fill="#001f3d" fill-opacity="1">
        <g transform="translate(407.709632, 456.927909)">
            <g>
                <path d="M 0.71875 0 L 0.71875 -6.59375 L 5 -6.59375 L 5 -5.40625 L 2.0625 -5.40625 L 2.0625 -4 L 4.546875 -4 L 4.546875 -2.8125 L 2.0625 -2.8125 L 2.0625 -1.234375 L 5 -1.234375 L 5 0 Z M 0.71875 0 "/>
            </g>
        </g>
    </g>
    <g fill="#001f3d" fill-opacity="1">
        <g transform="translate(413.186305, 456.927909)">
            <g>
                <path d="M 4.4375 0 L 2.03125 -4.71875 L 2.03125 0 L 0.71875 0 L 0.71875 -6.59375 L 2.453125 -6.59375 L 4.703125 -2.15625 L 4.703125 -6.59375 L 6.015625 -6.59375 L 6.015625 0 Z M 4.4375 0 "/>
            </g>
        </g>
    </g>
    <g fill="#001f3d" fill-opacity="1">
        <g transform="translate(419.911791, 456.927909)">
            <g>
                <path d="M 3.546875 -5.375 L 3.546875 0 L 2.203125 0 L 2.203125 -5.375 L 0.171875 -5.375 L 0.171875 -6.59375 L 5.578125 -6.59375 L 5.578125 -5.375 Z M 3.546875 -5.375 "/>
            </g>
        </g>
    </g>
    <g fill="#001f3d" fill-opacity="1">
        <g transform="translate(425.650614, 456.927909)">
            <g/>
        </g>
    </g>
    <g fill="#001f3d" fill-opacity="1">
        <g transform="translate(427.995714, 456.927909)">
            <g>
                <path d="M 6.09375 -3.296875 C 6.09375 -2.148438 5.847656 -1.289062 5.359375 -0.71875 C 4.878906 -0.144531 4.175781 0.140625 3.25 0.140625 C 2.269531 0.140625 1.550781 -0.160156 1.09375 -0.765625 C 0.632812 -1.367188 0.40625 -2.210938 0.40625 -3.296875 C 0.40625 -4.390625 0.632812 -5.234375 1.09375 -5.828125 C 1.550781 -6.429688 2.269531 -6.734375 3.25 -6.734375 C 4.226562 -6.734375 4.945312 -6.429688 5.40625 -5.828125 C 5.863281 -5.234375 6.09375 -4.390625 6.09375 -3.296875 Z M 4.703125 -3.296875 C 4.703125 -4.078125 4.59375 -4.644531 4.375 -5 C 4.15625 -5.363281 3.78125 -5.546875 3.25 -5.546875 C 2.71875 -5.546875 2.34375 -5.363281 2.125 -5 C 1.90625 -4.644531 1.796875 -4.078125 1.796875 -3.296875 C 1.796875 -2.515625 1.90625 -1.941406 2.125 -1.578125 C 2.351562 -1.222656 2.726562 -1.046875 3.25 -1.046875 C 3.78125 -1.046875 4.15625 -1.222656 4.375 -1.578125 C 4.59375 -1.941406 4.703125 -2.515625 4.703125 -3.296875 Z M 4.703125 -3.296875 "/>
            </g>
        </g>
    </g>
    <g fill="#001f3d" fill-opacity="1">
        <g transform="translate(434.497171, 456.927909)">
            <g>
                <path d="M 2.0625 -5.375 L 2.0625 -3.9375 L 4.484375 -3.9375 L 4.484375 -2.75 L 2.0625 -2.75 L 2.0625 0 L 0.71875 0 L 0.71875 -6.59375 L 4.953125 -6.59375 L 4.953125 -5.375 Z M 2.0625 -5.375 "/>
            </g>
        </g>
    </g>
    <g fill="#001f3d" fill-opacity="1">
        <g transform="translate(439.759347, 456.927909)">
            <g/>
        </g>
    </g>
    <g fill="#001f3d" fill-opacity="1">
        <g transform="translate(442.104448, 456.927909)">
            <g>
                <path d="M 0.71875 0 L 0.71875 -6.59375 L 5 -6.59375 L 5 -5.40625 L 2.0625 -5.40625 L 2.0625 -4 L 4.546875 -4 L 4.546875 -2.8125 L 2.0625 -2.8125 L 2.0625 -1.234375 L 5 -1.234375 L 5 0 Z M 0.71875 0 "/>
            </g>
        </g>
    </g>
    <g fill="#001f3d" fill-opacity="1">
        <g transform="translate(447.581121, 456.927909)">
            <g>
                <path d="M 4.4375 0 L 2.03125 -4.71875 L 2.03125 0 L 0.71875 0 L 0.71875 -6.59375 L 2.453125 -6.59375 L 4.703125 -2.15625 L 4.703125 -6.59375 L 6.015625 -6.59375 L 6.015625 0 Z M 4.4375 0 "/>
            </g>
        </g>
    </g>
    <g fill="#001f3d" fill-opacity="1">
        <g transform="translate(454.306607, 456.927909)">
            <g>
                <path d="M 3.546875 -5.375 L 3.546875 0 L 2.203125 0 L 2.203125 -5.375 L 0.171875 -5.375 L 0.171875 -6.59375 L 5.578125 -6.59375 L 5.578125 -5.375 Z M 3.546875 -5.375 "/>
            </g>
        </g>
    </g>
    <g fill="#001f3d" fill-opacity="1">
        <g transform="translate(460.04543, 456.927909)">
            <g>
                <path d="M 4.421875 0 L 2.734375 -2.5 L 2.0625 -2.5 L 2.0625 0 L 0.71875 0 L 0.71875 -6.59375 L 3.109375 -6.59375 C 3.960938 -6.59375 4.582031 -6.441406 4.96875 -6.140625 C 5.363281 -5.835938 5.5625 -5.335938 5.5625 -4.640625 C 5.5625 -4.078125 5.441406 -3.628906 5.203125 -3.296875 C 4.972656 -2.960938 4.640625 -2.75 4.203125 -2.65625 L 5.96875 0 Z M 4.203125 -4.578125 C 4.203125 -4.921875 4.113281 -5.148438 3.9375 -5.265625 C 3.769531 -5.378906 3.492188 -5.4375 3.109375 -5.4375 L 2.0625 -5.4375 L 2.0625 -3.671875 L 3.046875 -3.671875 C 3.347656 -3.671875 3.578125 -3.695312 3.734375 -3.75 C 3.898438 -3.8125 4.019531 -3.898438 4.09375 -4.015625 C 4.164062 -4.140625 4.203125 -4.328125 4.203125 -4.578125 Z M 4.203125 -4.578125 "/>
            </g>
        </g>
    </g>
    <g fill="#001f3d" fill-opacity="1">
        <g transform="translate(466.165569, 456.927909)">
            <g>
                <path d="M 0.71875 0 L 0.71875 -6.59375 L 5 -6.59375 L 5 -5.40625 L 2.0625 -5.40625 L 2.0625 -4 L 4.546875 -4 L 4.546875 -2.8125 L 2.0625 -2.8125 L 2.0625 -1.234375 L 5 -1.234375 L 5 0 Z M 0.71875 0 "/>
            </g>
        </g>
    </g>
    <g fill="#001f3d" fill-opacity="1">
        <g transform="translate(471.642242, 456.927909)">
            <g>
                <path d="M 5.53125 -4.390625 C 5.53125 -3.585938 5.34375 -2.992188 4.96875 -2.609375 C 4.601562 -2.234375 4 -2.046875 3.15625 -2.046875 L 2.0625 -2.046875 L 2.0625 0 L 0.71875 0 L 0.71875 -6.59375 L 3.1875 -6.59375 C 3.9375 -6.59375 4.515625 -6.421875 4.921875 -6.078125 C 5.328125 -5.734375 5.53125 -5.171875 5.53125 -4.390625 Z M 4.15625 -4.375 C 4.15625 -4.75 4.050781 -5.019531 3.84375 -5.1875 C 3.632812 -5.351562 3.265625 -5.4375 2.734375 -5.4375 L 2.0625 -5.4375 L 2.0625 -3.21875 L 2.609375 -3.21875 C 3.097656 -3.21875 3.4375 -3.25 3.625 -3.3125 C 3.820312 -3.382812 3.957031 -3.5 4.03125 -3.65625 C 4.113281 -3.820312 4.15625 -4.0625 4.15625 -4.375 Z M 4.15625 -4.375 "/>
            </g>
        </g>
    </g>
    <g fill="#001f3d" fill-opacity="1">
        <g transform="translate(477.547897, 456.927909)">
            <g>
                <path d="M 4.421875 0 L 2.734375 -2.5 L 2.0625 -2.5 L 2.0625 0 L 0.71875 0 L 0.71875 -6.59375 L 3.109375 -6.59375 C 3.960938 -6.59375 4.582031 -6.441406 4.96875 -6.140625 C 5.363281 -5.835938 5.5625 -5.335938 5.5625 -4.640625 C 5.5625 -4.078125 5.441406 -3.628906 5.203125 -3.296875 C 4.972656 -2.960938 4.640625 -2.75 4.203125 -2.65625 L 5.96875 0 Z M 4.203125 -4.578125 C 4.203125 -4.921875 4.113281 -5.148438 3.9375 -5.265625 C 3.769531 -5.378906 3.492188 -5.4375 3.109375 -5.4375 L 2.0625 -5.4375 L 2.0625 -3.671875 L 3.046875 -3.671875 C 3.347656 -3.671875 3.578125 -3.695312 3.734375 -3.75 C 3.898438 -3.8125 4.019531 -3.898438 4.09375 -4.015625 C 4.164062 -4.140625 4.203125 -4.328125 4.203125 -4.578125 Z M 4.203125 -4.578125 "/>
            </g>
        </g>
    </g>
    <g fill="#001f3d" fill-opacity="1">
        <g transform="translate(483.668048, 456.927909)">
            <g>
                <path d="M 0.71875 0 L 0.71875 -6.59375 L 5 -6.59375 L 5 -5.40625 L 2.0625 -5.40625 L 2.0625 -4 L 4.546875 -4 L 4.546875 -2.8125 L 2.0625 -2.8125 L 2.0625 -1.234375 L 5 -1.234375 L 5 0 Z M 0.71875 0 "/>
            </g>
        </g>
    </g>
    <g fill="#001f3d" fill-opacity="1">
        <g transform="translate(489.144732, 456.927909)">
            <g>
                <path d="M 4.4375 0 L 2.03125 -4.71875 L 2.03125 0 L 0.71875 0 L 0.71875 -6.59375 L 2.453125 -6.59375 L 4.703125 -2.15625 L 4.703125 -6.59375 L 6.015625 -6.59375 L 6.015625 0 Z M 4.4375 0 "/>
            </g>
        </g>
    </g>
    <g fill="#001f3d" fill-opacity="1">
        <g transform="translate(495.870219, 456.927909)">
            <g>
                <path d="M 0.71875 0 L 0.71875 -6.59375 L 5 -6.59375 L 5 -5.40625 L 2.0625 -5.40625 L 2.0625 -4 L 4.546875 -4 L 4.546875 -2.8125 L 2.0625 -2.8125 L 2.0625 -1.234375 L 5 -1.234375 L 5 0 Z M 0.71875 0 "/>
            </g>
        </g>
    </g>
    <g fill="#001f3d" fill-opacity="1">
        <g transform="translate(501.34688, 456.927909)">
            <g>
                <path d="M 6.140625 -2.75 C 6.140625 -1.71875 5.929688 -0.976562 5.515625 -0.53125 C 5.097656 -0.0820312 4.398438 0.140625 3.421875 0.140625 C 2.460938 0.140625 1.769531 -0.078125 1.34375 -0.515625 C 0.925781 -0.960938 0.71875 -1.707031 0.71875 -2.75 L 0.71875 -6.59375 L 2.0625 -6.59375 L 2.0625 -2.84375 C 2.0625 -2.394531 2.101562 -2.039062 2.1875 -1.78125 C 2.269531 -1.53125 2.40625 -1.34375 2.59375 -1.21875 C 2.78125 -1.101562 3.054688 -1.046875 3.421875 -1.046875 C 3.929688 -1.046875 4.285156 -1.179688 4.484375 -1.453125 C 4.691406 -1.722656 4.796875 -2.179688 4.796875 -2.828125 L 4.796875 -6.59375 L 6.140625 -6.59375 Z M 6.140625 -2.75 "/>
            </g>
        </g>
    </g>
    <g fill="#001f3d" fill-opacity="1">
        <g transform="translate(508.201067, 456.927909)">
            <g>
                <path d="M 4.421875 0 L 2.734375 -2.5 L 2.0625 -2.5 L 2.0625 0 L 0.71875 0 L 0.71875 -6.59375 L 3.109375 -6.59375 C 3.960938 -6.59375 4.582031 -6.441406 4.96875 -6.140625 C 5.363281 -5.835938 5.5625 -5.335938 5.5625 -4.640625 C 5.5625 -4.078125 5.441406 -3.628906 5.203125 -3.296875 C 4.972656 -2.960938 4.640625 -2.75 4.203125 -2.65625 L 5.96875 0 Z M 4.203125 -4.578125 C 4.203125 -4.921875 4.113281 -5.148438 3.9375 -5.265625 C 3.769531 -5.378906 3.492188 -5.4375 3.109375 -5.4375 L 2.0625 -5.4375 L 2.0625 -3.671875 L 3.046875 -3.671875 C 3.347656 -3.671875 3.578125 -3.695312 3.734375 -3.75 C 3.898438 -3.8125 4.019531 -3.898438 4.09375 -4.015625 C 4.164062 -4.140625 4.203125 -4.328125 4.203125 -4.578125 Z M 4.203125 -4.578125 "/>
            </g>
        </g>
    </g>
    <g fill="#001f3d" fill-opacity="1">
        <g transform="translate(514.321207, 456.927909)">
            <g>
                <path d="M 5.453125 -1.90625 C 5.453125 -1.25 5.234375 -0.742188 4.796875 -0.390625 C 4.367188 -0.0351562 3.734375 0.140625 2.890625 0.140625 C 2.304688 0.140625 1.796875 0.046875 1.359375 -0.140625 C 0.929688 -0.335938 0.582031 -0.65625 0.3125 -1.09375 L 1.34375 -1.890625 C 1.5 -1.671875 1.644531 -1.503906 1.78125 -1.390625 C 1.914062 -1.285156 2.078125 -1.203125 2.265625 -1.140625 C 2.453125 -1.078125 2.671875 -1.046875 2.921875 -1.046875 C 3.285156 -1.046875 3.566406 -1.109375 3.765625 -1.234375 C 3.972656 -1.367188 4.078125 -1.5625 4.078125 -1.8125 C 4.078125 -1.957031 4.039062 -2.078125 3.96875 -2.171875 C 3.894531 -2.273438 3.785156 -2.363281 3.640625 -2.4375 C 3.503906 -2.507812 3.257812 -2.59375 2.90625 -2.6875 C 2.5625 -2.78125 2.238281 -2.875 1.9375 -2.96875 C 1.632812 -3.0625 1.367188 -3.179688 1.140625 -3.328125 C 0.921875 -3.472656 0.75 -3.660156 0.625 -3.890625 C 0.5 -4.117188 0.4375 -4.40625 0.4375 -4.75 C 0.4375 -5.375 0.644531 -5.859375 1.0625 -6.203125 C 1.488281 -6.554688 2.097656 -6.734375 2.890625 -6.734375 C 4.023438 -6.734375 4.832031 -6.34375 5.3125 -5.5625 L 4.28125 -4.765625 C 4.101562 -5.046875 3.898438 -5.242188 3.671875 -5.359375 C 3.453125 -5.484375 3.1875 -5.546875 2.875 -5.546875 C 2.5625 -5.546875 2.304688 -5.488281 2.109375 -5.375 C 1.910156 -5.257812 1.8125 -5.082031 1.8125 -4.84375 C 1.8125 -4.632812 1.910156 -4.472656 2.109375 -4.359375 C 2.316406 -4.242188 2.675781 -4.128906 3.1875 -4.015625 C 3.46875 -3.941406 3.742188 -3.863281 4.015625 -3.78125 C 4.285156 -3.695312 4.523438 -3.578125 4.734375 -3.421875 C 4.953125 -3.273438 5.125 -3.082031 5.25 -2.84375 C 5.382812 -2.601562 5.453125 -2.289062 5.453125 -1.90625 Z M 5.453125 -1.90625 "/>
            </g>
        </g>
    </g>
    <g fill="#001f3d" fill-opacity="1">
        <g transform="translate(308.845242, 475.652012)">
            <g>
                <path d="M 0.375 -0.40625 C 0.375 -0.738281 0.421875 -1.160156 0.515625 -1.671875 C 0.609375 -2.191406 0.816406 -2.804688 1.140625 -3.515625 L 2.921875 -2.890625 C 2.753906 -2.429688 2.628906 -2.035156 2.546875 -1.703125 C 2.460938 -1.378906 2.421875 -1.0625 2.421875 -0.75 C 2.421875 -0.0195312 2.660156 0.519531 3.140625 0.875 C 3.617188 1.226562 4.253906 1.40625 5.046875 1.40625 C 5.753906 1.40625 6.3125 1.289062 6.71875 1.0625 C 7.125 0.832031 7.414062 0.507812 7.59375 0.09375 C 7.78125 -0.320312 7.894531 -0.800781 7.9375 -1.34375 C 7.988281 -1.882812 8.003906 -2.472656 7.984375 -3.109375 L 7.703125 -10.65625 L 9.75 -10.65625 L 10 -3.234375 C 10.019531 -2.597656 10 -1.960938 9.9375 -1.328125 C 9.875 -0.703125 9.742188 -0.109375 9.546875 0.453125 C 9.347656 1.015625 9.054688 1.515625 8.671875 1.953125 C 8.296875 2.390625 7.804688 2.734375 7.203125 2.984375 C 6.609375 3.234375 5.878906 3.359375 5.015625 3.359375 C 4.171875 3.359375 3.394531 3.226562 2.6875 2.96875 C 1.976562 2.707031 1.414062 2.296875 1 1.734375 C 0.582031 1.179688 0.375 0.46875 0.375 -0.40625 Z M 0.375 -0.40625 "/>
            </g>
        </g>
    </g>
    <g fill="#001f3d" fill-opacity="1">
        <g transform="translate(319.630303, 475.652012)">
            <g>
                <path d="M 4.609375 0.078125 C 3.710938 0.078125 3.019531 -0.015625 2.53125 -0.203125 C 2.039062 -0.390625 1.691406 -0.675781 1.484375 -1.0625 C 1.285156 -1.457031 1.179688 -1.957031 1.171875 -2.5625 L 0.859375 -10.65625 L 2.890625 -10.65625 L 3.203125 -3.53125 C 3.222656 -3.09375 3.269531 -2.757812 3.34375 -2.53125 C 3.425781 -2.3125 3.570312 -2.160156 3.78125 -2.078125 C 4 -2.003906 4.328125 -1.96875 4.765625 -1.96875 C 5.117188 -1.96875 5.378906 -1.867188 5.546875 -1.671875 C 5.710938 -1.484375 5.796875 -1.25 5.796875 -0.96875 C 5.796875 -0.675781 5.691406 -0.425781 5.484375 -0.21875 C 5.285156 -0.0195312 4.992188 0.078125 4.609375 0.078125 Z M 4.609375 0.078125 "/>
            </g>
        </g>
    </g>
    <g fill="#001f3d" fill-opacity="1">
        <g transform="translate(324.258705, 475.652012)">
            <g>
                <path d="M 0 0.078125 L 0.140625 -1.96875 C 0.378906 -1.96875 0.5625 -2.015625 0.6875 -2.109375 C 0.820312 -2.203125 0.953125 -2.367188 1.078125 -2.609375 C 1.203125 -2.847656 1.378906 -3.179688 1.609375 -3.609375 C 2.085938 -4.535156 2.597656 -5.175781 3.140625 -5.53125 C 3.691406 -5.894531 4.226562 -6.078125 4.75 -6.078125 C 5.28125 -6.078125 5.769531 -5.898438 6.21875 -5.546875 C 6.675781 -5.191406 7.101562 -4.535156 7.5 -3.578125 C 7.78125 -2.921875 8.0625 -2.488281 8.34375 -2.28125 C 8.625 -2.070312 8.921875 -1.96875 9.234375 -1.96875 C 9.597656 -1.96875 9.859375 -1.867188 10.015625 -1.671875 C 10.171875 -1.484375 10.25 -1.25 10.25 -0.96875 C 10.25 -0.675781 10.144531 -0.425781 9.9375 -0.21875 C 9.738281 -0.0195312 9.457031 0.078125 9.09375 0.078125 C 8.664062 0.078125 8.269531 0.015625 7.90625 -0.109375 C 7.550781 -0.242188 7.253906 -0.429688 7.015625 -0.671875 C 6.847656 -0.429688 6.617188 -0.210938 6.328125 -0.015625 C 6.046875 0.171875 5.703125 0.265625 5.296875 0.265625 C 5.054688 0.265625 4.773438 0.21875 4.453125 0.125 C 4.128906 0.03125 3.789062 -0.125 3.4375 -0.34375 C 3.09375 -0.5625 2.773438 -0.859375 2.484375 -1.234375 C 2.203125 -0.722656 1.878906 -0.375 1.515625 -0.1875 C 1.148438 -0.0078125 0.644531 0.078125 0 0.078125 Z M 3.328125 -2.953125 C 3.515625 -2.648438 3.78125 -2.375 4.125 -2.125 C 4.476562 -1.882812 4.847656 -1.765625 5.234375 -1.765625 C 5.421875 -1.765625 5.578125 -1.835938 5.703125 -1.984375 C 5.828125 -2.140625 5.832031 -2.367188 5.71875 -2.671875 C 5.65625 -2.828125 5.5625 -3.015625 5.4375 -3.234375 C 5.3125 -3.460938 5.175781 -3.65625 5.03125 -3.8125 C 4.882812 -3.976562 4.722656 -4.0625 4.546875 -4.0625 C 4.347656 -4.0625 4.144531 -3.972656 3.9375 -3.796875 C 3.738281 -3.617188 3.535156 -3.335938 3.328125 -2.953125 Z M 3.328125 -2.953125 "/>
            </g>
        </g>
    </g>
    <g fill="#001f3d" fill-opacity="1">
        <g transform="translate(333.340862, 475.652012)">
            <g>
                <path d="M 0 0.078125 L 0.140625 -1.96875 C 0.597656 -1.96875 0.953125 -1.972656 1.203125 -1.984375 C 1.453125 -1.992188 1.640625 -2.003906 1.765625 -2.015625 C 1.890625 -2.023438 1.992188 -2.035156 2.078125 -2.046875 C 1.972656 -2.148438 1.84375 -2.289062 1.6875 -2.46875 C 1.539062 -2.65625 1.40625 -2.894531 1.28125 -3.1875 C 1.164062 -3.476562 1.109375 -3.828125 1.109375 -4.234375 C 1.109375 -4.828125 1.257812 -5.347656 1.5625 -5.796875 C 1.875 -6.242188 2.289062 -6.59375 2.8125 -6.84375 C 3.332031 -7.09375 3.921875 -7.21875 4.578125 -7.21875 C 5.160156 -7.21875 5.71875 -7.140625 6.25 -6.984375 L 5.921875 -5.046875 C 5.734375 -5.097656 5.53125 -5.140625 5.3125 -5.171875 C 5.09375 -5.203125 4.90625 -5.21875 4.75 -5.21875 C 4.257812 -5.21875 3.867188 -5.101562 3.578125 -4.875 C 3.296875 -4.65625 3.15625 -4.359375 3.15625 -3.984375 C 3.15625 -3.703125 3.234375 -3.457031 3.390625 -3.25 C 3.554688 -3.039062 3.738281 -2.875 3.9375 -2.75 C 4.144531 -2.625 4.3125 -2.539062 4.4375 -2.5 C 4.757812 -2.601562 5.03125 -2.6875 5.25 -2.75 C 5.476562 -2.8125 5.710938 -2.882812 5.953125 -2.96875 C 6.191406 -3.0625 6.515625 -3.195312 6.921875 -3.375 L 7.578125 -1.453125 C 6.753906 -1.054688 5.953125 -0.742188 5.171875 -0.515625 C 4.398438 -0.296875 3.597656 -0.140625 2.765625 -0.046875 C 1.929688 0.0351562 1.007812 0.078125 0 0.078125 Z M 0 0.078125 "/>
            </g>
        </g>
    </g>
    <g fill="#001f3d" fill-opacity="1">
        <g transform="translate(341.447856, 475.652012)">
            <g>
                <path d="M 5.734375 -7.8125 C 5.734375 -8.289062 5.695312 -8.765625 5.625 -9.234375 C 5.550781 -9.710938 5.488281 -10.109375 5.4375 -10.421875 L 7.46875 -10.71875 C 7.5 -10.519531 7.535156 -10.257812 7.578125 -9.9375 C 7.617188 -9.625 7.65625 -9.289062 7.6875 -8.9375 C 7.71875 -8.582031 7.734375 -8.242188 7.734375 -7.921875 C 7.734375 -6.765625 7.492188 -5.742188 7.015625 -4.859375 C 7.578125 -4.265625 7.953125 -3.742188 8.140625 -3.296875 C 8.335938 -2.859375 8.4375 -2.472656 8.4375 -2.140625 C 8.4375 -1.765625 8.351562 -1.410156 8.1875 -1.078125 C 8.03125 -0.753906 7.769531 -0.492188 7.40625 -0.296875 C 7.050781 -0.0976562 6.570312 0 5.96875 0 L 1.6875 0 L 1.6875 -1.953125 C 2.96875 -2.867188 3.929688 -3.742188 4.578125 -4.578125 C 4.046875 -5.003906 3.441406 -5.457031 2.765625 -5.9375 C 2.085938 -6.425781 1.359375 -6.910156 0.578125 -7.390625 L 1.640625 -8.953125 C 2.460938 -8.453125 3.191406 -7.976562 3.828125 -7.53125 C 4.460938 -7.082031 5.015625 -6.660156 5.484375 -6.265625 C 5.648438 -6.742188 5.734375 -7.257812 5.734375 -7.8125 Z M 4.3125 -1.96875 L 5.25 -1.96875 C 5.75 -1.96875 6.078125 -2.007812 6.234375 -2.09375 C 6.390625 -2.1875 6.46875 -2.304688 6.46875 -2.453125 C 6.46875 -2.640625 6.28125 -2.929688 5.90625 -3.328125 C 5.46875 -2.867188 4.9375 -2.414062 4.3125 -1.96875 Z M 0.828125 -9.171875 L 0.578125 -10.1875 C 0.890625 -10.25 1.140625 -10.300781 1.328125 -10.34375 C 1.148438 -10.46875 1 -10.628906 0.875 -10.828125 C 0.75 -11.035156 0.6875 -11.257812 0.6875 -11.5 C 0.6875 -11.851562 0.765625 -12.132812 0.921875 -12.34375 C 1.078125 -12.5625 1.273438 -12.71875 1.515625 -12.8125 C 1.753906 -12.90625 2.003906 -12.953125 2.265625 -12.953125 C 2.546875 -12.953125 2.804688 -12.914062 3.046875 -12.84375 L 2.921875 -11.796875 C 2.828125 -11.816406 2.726562 -11.832031 2.625 -11.84375 C 2.53125 -11.863281 2.425781 -11.875 2.3125 -11.875 C 2.175781 -11.875 2.054688 -11.832031 1.953125 -11.75 C 1.859375 -11.675781 1.8125 -11.578125 1.8125 -11.453125 C 1.8125 -11.265625 1.890625 -11.097656 2.046875 -10.953125 C 2.210938 -10.816406 2.378906 -10.71875 2.546875 -10.65625 C 2.859375 -10.75 3.144531 -10.847656 3.40625 -10.953125 L 3.703125 -9.96875 C 3.328125 -9.832031 2.875 -9.6875 2.34375 -9.53125 C 1.820312 -9.382812 1.316406 -9.265625 0.828125 -9.171875 Z M 0.828125 -9.171875 "/>
            </g>
        </g>
    </g>
    <g fill="#001f3d" fill-opacity="1">
        <g transform="translate(351.083094, 475.652012)">
            <g>
                <path d="M 1.171875 0 L 0.859375 -10.65625 L 2.890625 -10.65625 L 3.203125 0 Z M 1.171875 0 "/>
            </g>
        </g>
    </g>
    <g fill="#001f3d" fill-opacity="1">
        <g transform="translate(355.05654, 475.652012)">
            <g/>
        </g>
    </g>
    <g fill="#001f3d" fill-opacity="1">
        <g transform="translate(358.553076, 475.652012)">
            <g>
                <path d="M 0.515625 -0.578125 L 1.21875 -2.4375 C 1.90625 -2.125 2.582031 -1.96875 3.25 -1.96875 C 4.28125 -1.96875 4.796875 -2.242188 4.796875 -2.796875 C 4.796875 -2.960938 4.742188 -3.191406 4.640625 -3.484375 C 4.535156 -3.773438 4.351562 -4.15625 4.09375 -4.625 C 3.832031 -5.09375 3.445312 -5.675781 2.9375 -6.375 L 4.671875 -7.53125 C 5.359375 -6.53125 5.910156 -5.582031 6.328125 -4.6875 C 6.742188 -3.789062 6.953125 -3.039062 6.953125 -2.4375 C 6.953125 -1.6875 6.65625 -1.078125 6.0625 -0.609375 C 5.46875 -0.140625 4.601562 0.09375 3.46875 0.09375 C 3.1875 0.09375 2.867188 0.0664062 2.515625 0.015625 C 2.160156 -0.0351562 1.804688 -0.109375 1.453125 -0.203125 C 1.109375 -0.296875 0.796875 -0.421875 0.515625 -0.578125 Z M 0.515625 -0.578125 "/>
            </g>
        </g>
    </g>
    <g fill="#001f3d" fill-opacity="1">
        <g transform="translate(366.077875, 475.652012)">
            <g>
                <path d="M 1.171875 0 L 0.859375 -10.65625 L 2.890625 -10.65625 L 3.203125 0 Z M 1.171875 0 "/>
            </g>
        </g>
    </g>
    <g fill="#001f3d" fill-opacity="1">
        <g transform="translate(370.051321, 475.652012)">
            <g>
                <path d="M 0.828125 3.34375 L 0.40625 1.3125 C 1.34375 1.195312 2.125 1.039062 2.75 0.84375 C 3.375 0.65625 3.835938 0.335938 4.140625 -0.109375 C 4.003906 -0.0546875 3.851562 -0.015625 3.6875 0.015625 C 3.53125 0.046875 3.359375 0.0625 3.171875 0.0625 C 2.703125 0.0625 2.28125 -0.0078125 1.90625 -0.15625 C 1.539062 -0.3125 1.242188 -0.550781 1.015625 -0.875 C 0.796875 -1.195312 0.6875 -1.613281 0.6875 -2.125 C 0.6875 -2.601562 0.765625 -3.0625 0.921875 -3.5 C 1.078125 -3.945312 1.289062 -4.347656 1.5625 -4.703125 C 1.84375 -5.066406 2.164062 -5.351562 2.53125 -5.5625 C 2.894531 -5.769531 3.28125 -5.875 3.6875 -5.875 C 4.15625 -5.875 4.570312 -5.75 4.9375 -5.5 C 5.3125 -5.257812 5.617188 -4.941406 5.859375 -4.546875 C 6.109375 -4.160156 6.296875 -3.738281 6.421875 -3.28125 C 6.546875 -2.820312 6.609375 -2.382812 6.609375 -1.96875 C 6.609375 -0.875 6.375 0.0546875 5.90625 0.828125 C 5.445312 1.597656 4.785156 2.191406 3.921875 2.609375 C 3.054688 3.035156 2.023438 3.28125 0.828125 3.34375 Z M 2.6875 -2.53125 C 2.6875 -2.125 2.992188 -1.921875 3.609375 -1.921875 C 3.929688 -1.921875 4.25 -1.960938 4.5625 -2.046875 C 4.539062 -2.316406 4.492188 -2.578125 4.421875 -2.828125 C 4.347656 -3.085938 4.242188 -3.300781 4.109375 -3.46875 C 3.972656 -3.632812 3.800781 -3.71875 3.59375 -3.71875 C 3.320312 -3.71875 3.101562 -3.585938 2.9375 -3.328125 C 2.769531 -3.066406 2.6875 -2.800781 2.6875 -2.53125 Z M 2.6875 -2.53125 "/>
            </g>
        </g>
    </g>
    <g fill="#001f3d" fill-opacity="1">
        <g transform="translate(377.299585, 475.652012)">
            <g>
                <path d="M 0.234375 3.34375 L -0.515625 1.484375 C 0.734375 1.046875 1.640625 0.546875 2.203125 -0.015625 C 2.765625 -0.585938 3.046875 -1.191406 3.046875 -1.828125 C 3.046875 -2.242188 2.957031 -2.679688 2.78125 -3.140625 C 2.601562 -3.609375 2.375 -4.113281 2.09375 -4.65625 L 4 -5.578125 C 4.34375 -4.929688 4.609375 -4.3125 4.796875 -3.71875 C 4.984375 -3.125 5.078125 -2.566406 5.078125 -2.046875 C 5.078125 -0.859375 4.6875 0.1875 3.90625 1.09375 C 3.132812 2.007812 1.910156 2.757812 0.234375 3.34375 Z M 0.234375 3.34375 "/>
            </g>
        </g>
    </g>
    <g fill="#001f3d" fill-opacity="1">
        <g transform="translate(383.252469, 475.652012)">
            <g/>
        </g>
    </g>
    <g fill="#001f3d" fill-opacity="1">
        <g transform="translate(386.749005, 475.652012)">
            <g>
                <path d="M 3.25 0.046875 C 2.707031 0.046875 2.21875 -0.046875 1.78125 -0.234375 C 1.351562 -0.429688 1.015625 -0.71875 0.765625 -1.09375 C 0.515625 -1.476562 0.390625 -1.957031 0.390625 -2.53125 C 0.390625 -3 0.519531 -3.515625 0.78125 -4.078125 C 1.039062 -4.640625 1.457031 -5.210938 2.03125 -5.796875 L 1.46875 -6.25 L 2.84375 -7.921875 C 3.945312 -7.078125 4.8125 -6.257812 5.4375 -5.46875 C 6.0625 -4.6875 6.375 -3.828125 6.375 -2.890625 C 6.375 -2.597656 6.328125 -2.273438 6.234375 -1.921875 C 6.140625 -1.578125 5.972656 -1.257812 5.734375 -0.96875 C 5.503906 -0.675781 5.1875 -0.429688 4.78125 -0.234375 C 4.375 -0.046875 3.863281 0.046875 3.25 0.046875 Z M 3.40625 -1.96875 C 3.769531 -1.96875 4.035156 -2.070312 4.203125 -2.28125 C 4.367188 -2.488281 4.453125 -2.722656 4.453125 -2.984375 C 4.453125 -3.203125 4.382812 -3.453125 4.25 -3.734375 C 4.113281 -4.023438 3.816406 -4.363281 3.359375 -4.75 C 3.003906 -4.40625 2.75 -4.078125 2.59375 -3.765625 C 2.445312 -3.453125 2.375 -3.164062 2.375 -2.90625 C 2.375 -2.601562 2.472656 -2.367188 2.671875 -2.203125 C 2.878906 -2.046875 3.125 -1.96875 3.40625 -1.96875 Z M 2.078125 -9.03125 C 1.796875 -9.03125 1.554688 -9.128906 1.359375 -9.328125 C 1.160156 -9.523438 1.0625 -9.757812 1.0625 -10.03125 C 1.0625 -10.3125 1.160156 -10.554688 1.359375 -10.765625 C 1.554688 -10.972656 1.796875 -11.078125 2.078125 -11.078125 C 2.347656 -11.078125 2.582031 -10.972656 2.78125 -10.765625 C 2.976562 -10.554688 3.078125 -10.3125 3.078125 -10.03125 C 3.078125 -9.757812 2.976562 -9.523438 2.78125 -9.328125 C 2.582031 -9.128906 2.347656 -9.03125 2.078125 -9.03125 Z M 4.609375 -9.015625 C 4.328125 -9.015625 4.082031 -9.109375 3.875 -9.296875 C 3.675781 -9.492188 3.578125 -9.734375 3.578125 -10.015625 C 3.578125 -10.296875 3.675781 -10.539062 3.875 -10.75 C 4.082031 -10.957031 4.328125 -11.0625 4.609375 -11.0625 C 4.878906 -11.0625 5.109375 -10.957031 5.296875 -10.75 C 5.492188 -10.539062 5.59375 -10.296875 5.59375 -10.015625 C 5.59375 -9.734375 5.492188 -9.492188 5.296875 -9.296875 C 5.109375 -9.109375 4.878906 -9.015625 4.609375 -9.015625 Z M 4.609375 -9.015625 "/>
            </g>
        </g>
    </g>
    <g fill="#001f3d" fill-opacity="1">
        <g transform="translate(393.60429, 475.652012)">
            <g>
                <path d="M 0.234375 3.34375 L -0.515625 1.484375 C 0.734375 1.046875 1.640625 0.546875 2.203125 -0.015625 C 2.765625 -0.585938 3.046875 -1.191406 3.046875 -1.828125 C 3.046875 -2.242188 2.957031 -2.679688 2.78125 -3.140625 C 2.601562 -3.609375 2.375 -4.113281 2.09375 -4.65625 L 4 -5.578125 C 4.34375 -4.929688 4.609375 -4.3125 4.796875 -3.71875 C 4.984375 -3.125 5.078125 -2.566406 5.078125 -2.046875 C 5.078125 -0.859375 4.6875 0.1875 3.90625 1.09375 C 3.132812 2.007812 1.910156 2.757812 0.234375 3.34375 Z M 0.234375 3.34375 "/>
            </g>
        </g>
    </g>
    <g fill="#001f3d" fill-opacity="1">
        <g transform="translate(399.557175, 475.652012)">
            <g>
                <path d="M 1.171875 0 L 0.859375 -10.65625 L 2.890625 -10.65625 L 3.203125 0 Z M 1.171875 0 "/>
            </g>
        </g>
    </g>
    <g fill="#001f3d" fill-opacity="1">
        <g transform="translate(403.530621, 475.652012)">
            <g>
                <path d="M 0.515625 -0.578125 L 1.21875 -2.4375 C 1.90625 -2.125 2.582031 -1.96875 3.25 -1.96875 C 4.28125 -1.96875 4.796875 -2.242188 4.796875 -2.796875 C 4.796875 -2.960938 4.742188 -3.191406 4.640625 -3.484375 C 4.535156 -3.773438 4.351562 -4.15625 4.09375 -4.625 C 3.832031 -5.09375 3.445312 -5.675781 2.9375 -6.375 L 4.671875 -7.53125 C 5.359375 -6.53125 5.910156 -5.582031 6.328125 -4.6875 C 6.742188 -3.789062 6.953125 -3.039062 6.953125 -2.4375 C 6.953125 -1.6875 6.65625 -1.078125 6.0625 -0.609375 C 5.46875 -0.140625 4.601562 0.09375 3.46875 0.09375 C 3.1875 0.09375 2.867188 0.0664062 2.515625 0.015625 C 2.160156 -0.0351562 1.804688 -0.109375 1.453125 -0.203125 C 1.109375 -0.296875 0.796875 -0.421875 0.515625 -0.578125 Z M 0.515625 -0.578125 "/>
            </g>
        </g>
    </g>
    <g fill="#001f3d" fill-opacity="1">
        <g transform="translate(411.05542, 475.652012)">
            <g>
                <path d="M 5.734375 -7.8125 C 5.734375 -8.289062 5.695312 -8.765625 5.625 -9.234375 C 5.550781 -9.710938 5.488281 -10.109375 5.4375 -10.421875 L 7.46875 -10.71875 C 7.5 -10.519531 7.535156 -10.257812 7.578125 -9.9375 C 7.617188 -9.625 7.65625 -9.289062 7.6875 -8.9375 C 7.71875 -8.582031 7.734375 -8.242188 7.734375 -7.921875 C 7.734375 -6.765625 7.492188 -5.742188 7.015625 -4.859375 C 7.578125 -4.265625 7.953125 -3.742188 8.140625 -3.296875 C 8.335938 -2.859375 8.4375 -2.472656 8.4375 -2.140625 C 8.4375 -1.765625 8.351562 -1.410156 8.1875 -1.078125 C 8.03125 -0.753906 7.769531 -0.492188 7.40625 -0.296875 C 7.050781 -0.0976562 6.570312 0 5.96875 0 L 1.6875 0 L 1.6875 -1.953125 C 2.96875 -2.867188 3.929688 -3.742188 4.578125 -4.578125 C 4.046875 -5.003906 3.441406 -5.457031 2.765625 -5.9375 C 2.085938 -6.425781 1.359375 -6.910156 0.578125 -7.390625 L 1.640625 -8.953125 C 2.460938 -8.453125 3.191406 -7.976562 3.828125 -7.53125 C 4.460938 -7.082031 5.015625 -6.660156 5.484375 -6.265625 C 5.648438 -6.742188 5.734375 -7.257812 5.734375 -7.8125 Z M 4.3125 -1.96875 L 5.25 -1.96875 C 5.75 -1.96875 6.078125 -2.007812 6.234375 -2.09375 C 6.390625 -2.1875 6.46875 -2.304688 6.46875 -2.453125 C 6.46875 -2.640625 6.28125 -2.929688 5.90625 -3.328125 C 5.46875 -2.867188 4.9375 -2.414062 4.3125 -1.96875 Z M 1.484375 4.5 L 1.234375 3.484375 C 1.546875 3.421875 1.796875 3.367188 1.984375 3.328125 C 1.804688 3.203125 1.65625 3.035156 1.53125 2.828125 C 1.40625 2.628906 1.34375 2.410156 1.34375 2.171875 C 1.34375 1.816406 1.421875 1.53125 1.578125 1.3125 C 1.734375 1.101562 1.929688 0.953125 2.171875 0.859375 C 2.410156 0.765625 2.660156 0.71875 2.921875 0.71875 C 3.203125 0.71875 3.460938 0.753906 3.703125 0.828125 L 3.578125 1.875 C 3.484375 1.851562 3.382812 1.832031 3.28125 1.8125 C 3.1875 1.800781 3.082031 1.796875 2.96875 1.796875 C 2.832031 1.796875 2.710938 1.832031 2.609375 1.90625 C 2.515625 1.988281 2.46875 2.09375 2.46875 2.21875 C 2.46875 2.40625 2.546875 2.566406 2.703125 2.703125 C 2.867188 2.847656 3.035156 2.953125 3.203125 3.015625 C 3.515625 2.921875 3.800781 2.820312 4.0625 2.71875 L 4.359375 3.703125 C 3.984375 3.835938 3.53125 3.976562 3 4.125 C 2.476562 4.28125 1.972656 4.40625 1.484375 4.5 Z M 1.484375 4.5 "/>
            </g>
        </g>
    </g>
    <g fill="#001f3d" fill-opacity="1">
        <g transform="translate(420.25402, 475.652012)">
            <g/>
        </g>
    </g>
    <g fill="#001f3d" fill-opacity="1">
        <g transform="translate(423.750555, 475.652012)">
            <g>
                <path d="M 3.171875 -1.96875 C 3.828125 -1.96875 4.257812 -2.050781 4.46875 -2.21875 C 4.6875 -2.382812 4.796875 -2.578125 4.796875 -2.796875 C 4.796875 -3.023438 4.726562 -3.296875 4.59375 -3.609375 C 4.457031 -3.921875 4.289062 -4.242188 4.09375 -4.578125 C 3.90625 -4.921875 3.703125 -5.25 3.484375 -5.5625 C 3.273438 -5.875 3.09375 -6.144531 2.9375 -6.375 L 4.671875 -7.53125 C 5.304688 -6.6875 5.804688 -5.867188 6.171875 -5.078125 C 6.535156 -4.285156 6.773438 -3.640625 6.890625 -3.140625 C 6.992188 -2.679688 7.195312 -2.367188 7.5 -2.203125 C 7.800781 -2.046875 8.117188 -1.96875 8.453125 -1.96875 C 8.816406 -1.96875 9.078125 -1.867188 9.234375 -1.671875 C 9.398438 -1.484375 9.484375 -1.25 9.484375 -0.96875 C 9.484375 -0.675781 9.382812 -0.425781 9.1875 -0.21875 C 8.988281 -0.0195312 8.691406 0.078125 8.296875 0.078125 C 7.390625 0.078125 6.710938 -0.203125 6.265625 -0.765625 C 6.003906 -0.515625 5.632812 -0.304688 5.15625 -0.140625 C 4.675781 0.015625 4.113281 0.09375 3.46875 0.09375 C 3.019531 0.09375 2.519531 0.0390625 1.96875 -0.0625 C 1.414062 -0.175781 0.929688 -0.347656 0.515625 -0.578125 L 1.21875 -2.4375 C 1.582031 -2.269531 1.929688 -2.148438 2.265625 -2.078125 C 2.597656 -2.003906 2.898438 -1.96875 3.171875 -1.96875 Z M 3.171875 -1.96875 "/>
            </g>
        </g>
    </g>
    <g fill="#001f3d" fill-opacity="1">
        <g transform="translate(432.061312, 475.652012)">
            <g>
                <path d="M 0 0.078125 L 0.140625 -1.96875 C 0.492188 -1.96875 0.796875 -2 1.046875 -2.0625 C 1.296875 -2.132812 1.507812 -2.273438 1.6875 -2.484375 C 1.863281 -2.691406 2.007812 -3 2.125 -3.40625 C 2.25 -3.8125 2.363281 -4.351562 2.46875 -5.03125 L 4.375 -4.71875 C 4.332031 -4.5 4.285156 -4.234375 4.234375 -3.921875 C 4.191406 -3.609375 4.171875 -3.320312 4.171875 -3.0625 C 4.171875 -2.707031 4.3125 -2.4375 4.59375 -2.25 C 4.882812 -2.0625 5.390625 -1.96875 6.109375 -1.96875 C 6.460938 -1.96875 6.71875 -1.867188 6.875 -1.671875 C 7.039062 -1.484375 7.125 -1.25 7.125 -0.96875 C 7.125 -0.675781 7.023438 -0.425781 6.828125 -0.21875 C 6.628906 -0.0195312 6.335938 0.078125 5.953125 0.078125 C 5.273438 0.078125 4.695312 -0.0078125 4.21875 -0.1875 C 3.738281 -0.363281 3.382812 -0.675781 3.15625 -1.125 C 2.894531 -0.769531 2.585938 -0.507812 2.234375 -0.34375 C 1.878906 -0.175781 1.507812 -0.0625 1.125 0 C 0.738281 0.0507812 0.363281 0.078125 0 0.078125 Z M 4.0625 3.453125 C 3.78125 3.453125 3.539062 3.351562 3.34375 3.15625 C 3.144531 2.96875 3.046875 2.734375 3.046875 2.453125 C 3.046875 2.171875 3.144531 1.925781 3.34375 1.71875 C 3.539062 1.519531 3.78125 1.421875 4.0625 1.421875 C 4.332031 1.421875 4.566406 1.519531 4.765625 1.71875 C 4.960938 1.925781 5.0625 2.171875 5.0625 2.453125 C 5.0625 2.734375 4.960938 2.96875 4.765625 3.15625 C 4.566406 3.351562 4.332031 3.453125 4.0625 3.453125 Z M 1.546875 3.453125 C 1.265625 3.453125 1.023438 3.351562 0.828125 3.15625 C 0.628906 2.96875 0.53125 2.734375 0.53125 2.453125 C 0.53125 2.171875 0.628906 1.925781 0.828125 1.71875 C 1.023438 1.519531 1.265625 1.421875 1.546875 1.421875 C 1.816406 1.421875 2.046875 1.519531 2.234375 1.71875 C 2.429688 1.925781 2.53125 2.171875 2.53125 2.453125 C 2.53125 2.734375 2.429688 2.96875 2.234375 3.15625 C 2.046875 3.351562 1.816406 3.453125 1.546875 3.453125 Z M 1.546875 3.453125 "/>
            </g>
        </g>
    </g>
    <g fill="#001f3d" fill-opacity="1">
        <g transform="translate(438.014196, 475.652012)">
            <g>
                <path d="M 0 0.078125 L 0.140625 -1.96875 C 0.515625 -1.96875 0.8125 -2 1.03125 -2.0625 C 1.25 -2.132812 1.421875 -2.273438 1.546875 -2.484375 C 1.679688 -2.691406 1.796875 -3 1.890625 -3.40625 C 1.984375 -3.8125 2.078125 -4.351562 2.171875 -5.03125 L 4.078125 -4.71875 C 4.035156 -4.5 3.988281 -4.234375 3.9375 -3.921875 C 3.894531 -3.609375 3.875 -3.320312 3.875 -3.0625 C 3.875 -2.820312 3.921875 -2.617188 4.015625 -2.453125 C 4.117188 -2.296875 4.304688 -2.175781 4.578125 -2.09375 C 4.847656 -2.007812 5.234375 -1.96875 5.734375 -1.96875 C 6.109375 -1.96875 6.367188 -1.867188 6.515625 -1.671875 C 6.671875 -1.484375 6.75 -1.25 6.75 -0.96875 C 6.75 -0.675781 6.648438 -0.425781 6.453125 -0.21875 C 6.253906 -0.0195312 5.96875 0.078125 5.59375 0.078125 C 4.8125 0.078125 4.203125 -0.00390625 3.765625 -0.171875 C 3.335938 -0.335938 3.035156 -0.632812 2.859375 -1.0625 C 2.492188 -0.5625 2.066406 -0.242188 1.578125 -0.109375 C 1.085938 0.015625 0.5625 0.078125 0 0.078125 Z M 2.578125 3.421875 C 2.296875 3.421875 2.054688 3.320312 1.859375 3.125 C 1.660156 2.9375 1.5625 2.703125 1.5625 2.421875 C 1.5625 2.140625 1.660156 1.894531 1.859375 1.6875 C 2.054688 1.476562 2.296875 1.375 2.578125 1.375 C 2.859375 1.375 3.097656 1.476562 3.296875 1.6875 C 3.503906 1.894531 3.609375 2.140625 3.609375 2.421875 C 3.609375 2.703125 3.503906 2.9375 3.296875 3.125 C 3.097656 3.320312 2.859375 3.421875 2.578125 3.421875 Z M 2.578125 3.421875 "/>
            </g>
        </g>
    </g>
    <g fill="#001f3d" fill-opacity="1">
        <g transform="translate(443.603216, 475.652012)">
            <g>
                <path d="M 0 0.078125 L 0.140625 -1.96875 C 0.460938 -1.96875 0.722656 -1.992188 0.921875 -2.046875 C 1.128906 -2.097656 1.296875 -2.21875 1.421875 -2.40625 C 1.554688 -2.59375 1.675781 -2.878906 1.78125 -3.265625 C 1.882812 -3.648438 2 -4.171875 2.125 -4.828125 L 4.015625 -4.484375 C 3.984375 -4.273438 3.929688 -4.007812 3.859375 -3.6875 C 3.796875 -3.363281 3.765625 -3.085938 3.765625 -2.859375 C 3.765625 -2.585938 3.851562 -2.367188 4.03125 -2.203125 C 4.207031 -2.046875 4.539062 -1.96875 5.03125 -1.96875 C 5.269531 -1.96875 5.476562 -1.992188 5.65625 -2.046875 C 5.832031 -2.097656 5.984375 -2.21875 6.109375 -2.40625 C 6.242188 -2.59375 6.363281 -2.890625 6.46875 -3.296875 C 6.570312 -3.703125 6.671875 -4.25 6.765625 -4.9375 L 8.6875 -4.625 C 8.632812 -4.289062 8.578125 -3.929688 8.515625 -3.546875 C 8.460938 -3.171875 8.4375 -2.882812 8.4375 -2.6875 C 8.4375 -2.507812 8.523438 -2.34375 8.703125 -2.1875 C 8.878906 -2.039062 9.242188 -1.96875 9.796875 -1.96875 C 10.191406 -1.96875 10.5 -2.046875 10.71875 -2.203125 C 10.945312 -2.359375 11.0625 -2.628906 11.0625 -3.015625 C 11.0625 -3.367188 10.976562 -3.835938 10.8125 -4.421875 C 10.65625 -5.003906 10.460938 -5.617188 10.234375 -6.265625 L 12.296875 -6.875 C 12.453125 -6.457031 12.585938 -6.007812 12.703125 -5.53125 C 12.828125 -5.0625 12.925781 -4.601562 13 -4.15625 C 13.070312 -3.71875 13.109375 -3.335938 13.109375 -3.015625 C 13.109375 -2.015625 12.8125 -1.25 12.21875 -0.71875 C 11.632812 -0.1875 10.875 0.078125 9.9375 0.078125 C 9.25 0.078125 8.71875 0 8.34375 -0.15625 C 7.96875 -0.320312 7.695312 -0.613281 7.53125 -1.03125 C 7.332031 -0.695312 7.117188 -0.453125 6.890625 -0.296875 C 6.660156 -0.140625 6.390625 -0.0390625 6.078125 0 C 5.773438 0.0507812 5.410156 0.078125 4.984375 0.078125 C 4.722656 0.078125 4.457031 0.0507812 4.1875 0 C 3.925781 -0.0390625 3.675781 -0.128906 3.4375 -0.265625 C 3.207031 -0.410156 3.003906 -0.640625 2.828125 -0.953125 C 2.492188 -0.503906 2.085938 -0.21875 1.609375 -0.09375 C 1.140625 0.0195312 0.601562 0.078125 0 0.078125 Z M 0 0.078125 "/>
            </g>
        </g>
    </g>
    <g fill="#001f3d" fill-opacity="1">
        <g transform="translate(457.430217, 475.652012)">
            <g/>
        </g>
    </g>
    <g fill="#001f3d" fill-opacity="1">
        <g transform="translate(460.926755, 475.652012)">
            <g>
                <path d="M 0.375 -0.40625 C 0.375 -0.738281 0.421875 -1.160156 0.515625 -1.671875 C 0.609375 -2.191406 0.816406 -2.804688 1.140625 -3.515625 L 2.921875 -2.890625 C 2.753906 -2.429688 2.628906 -2.035156 2.546875 -1.703125 C 2.460938 -1.378906 2.421875 -1.0625 2.421875 -0.75 C 2.421875 -0.03125 2.660156 0.492188 3.140625 0.828125 C 3.617188 1.160156 4.253906 1.328125 5.046875 1.328125 C 5.648438 1.328125 6.144531 1.242188 6.53125 1.078125 C 6.925781 0.921875 7.226562 0.710938 7.4375 0.453125 C 7.65625 0.203125 7.804688 -0.0703125 7.890625 -0.375 C 7.984375 -0.6875 8.03125 -0.988281 8.03125 -1.28125 C 8.03125 -1.664062 7.957031 -2.132812 7.8125 -2.6875 C 7.675781 -3.25 7.4375 -3.875 7.09375 -4.5625 L 8.96875 -5.359375 C 9.164062 -5.015625 9.34375 -4.617188 9.5 -4.171875 C 9.664062 -3.722656 9.800781 -3.253906 9.90625 -2.765625 C 10.007812 -2.273438 10.0625 -1.816406 10.0625 -1.390625 C 10.0625 -0.992188 10.007812 -0.578125 9.90625 -0.140625 C 9.8125 0.285156 9.648438 0.707031 9.421875 1.125 C 9.203125 1.539062 8.894531 1.914062 8.5 2.25 C 8.113281 2.582031 7.632812 2.847656 7.0625 3.046875 C 6.488281 3.253906 5.804688 3.359375 5.015625 3.359375 C 4.160156 3.359375 3.378906 3.234375 2.671875 2.984375 C 1.972656 2.734375 1.414062 2.328125 1 1.765625 C 0.582031 1.210938 0.375 0.488281 0.375 -0.40625 Z M 5.125 -5.9375 C 4.820312 -5.9375 4.566406 -6.035156 4.359375 -6.234375 C 4.148438 -6.441406 4.046875 -6.695312 4.046875 -7 C 4.046875 -7.300781 4.148438 -7.554688 4.359375 -7.765625 C 4.566406 -7.984375 4.820312 -8.09375 5.125 -8.09375 C 5.414062 -8.09375 5.664062 -7.984375 5.875 -7.765625 C 6.082031 -7.554688 6.1875 -7.300781 6.1875 -7 C 6.1875 -6.695312 6.082031 -6.441406 5.875 -6.234375 C 5.664062 -6.035156 5.414062 -5.9375 5.125 -5.9375 Z M 5.125 -5.9375 "/>
            </g>
        </g>
    </g>
    <g fill="#001f3d" fill-opacity="1">
        <g transform="translate(471.711815, 475.652012)">
            <g>
                <path d="M 3.171875 -1.96875 C 3.828125 -1.96875 4.257812 -2.050781 4.46875 -2.21875 C 4.6875 -2.382812 4.796875 -2.578125 4.796875 -2.796875 C 4.796875 -3.023438 4.726562 -3.296875 4.59375 -3.609375 C 4.457031 -3.921875 4.289062 -4.242188 4.09375 -4.578125 C 3.90625 -4.921875 3.703125 -5.25 3.484375 -5.5625 C 3.273438 -5.875 3.09375 -6.144531 2.9375 -6.375 L 4.671875 -7.53125 C 5.304688 -6.6875 5.804688 -5.867188 6.171875 -5.078125 C 6.535156 -4.285156 6.773438 -3.640625 6.890625 -3.140625 C 6.992188 -2.679688 7.195312 -2.367188 7.5 -2.203125 C 7.800781 -2.046875 8.117188 -1.96875 8.453125 -1.96875 C 8.816406 -1.96875 9.078125 -1.867188 9.234375 -1.671875 C 9.398438 -1.484375 9.484375 -1.25 9.484375 -0.96875 C 9.484375 -0.675781 9.382812 -0.425781 9.1875 -0.21875 C 8.988281 -0.0195312 8.691406 0.078125 8.296875 0.078125 C 7.390625 0.078125 6.710938 -0.203125 6.265625 -0.765625 C 6.003906 -0.515625 5.632812 -0.304688 5.15625 -0.140625 C 4.675781 0.015625 4.113281 0.09375 3.46875 0.09375 C 3.019531 0.09375 2.519531 0.0390625 1.96875 -0.0625 C 1.414062 -0.175781 0.929688 -0.347656 0.515625 -0.578125 L 1.21875 -2.4375 C 1.582031 -2.269531 1.929688 -2.148438 2.265625 -2.078125 C 2.597656 -2.003906 2.898438 -1.96875 3.171875 -1.96875 Z M 3.171875 -1.96875 "/>
            </g>
        </g>
    </g>
    <g fill="#001f3d" fill-opacity="1">
        <g transform="translate(480.022571, 475.652012)">
            <g>
                <path d="M 0 0.078125 L 0.140625 -1.96875 C 0.585938 -1.96875 0.90625 -2.015625 1.09375 -2.109375 C 1.289062 -2.203125 1.410156 -2.375 1.453125 -2.625 C 1.492188 -2.882812 1.503906 -3.257812 1.484375 -3.75 L 1.21875 -10.65625 L 3.28125 -10.65625 L 3.5625 -3.609375 C 3.582031 -3.046875 3.5625 -2.535156 3.5 -2.078125 C 3.4375 -1.628906 3.285156 -1.242188 3.046875 -0.921875 C 2.804688 -0.609375 2.441406 -0.363281 1.953125 -0.1875 C 1.460938 -0.0078125 0.8125 0.078125 0 0.078125 Z M 0 0.078125 "/>
            </g>
        </g>
    </g>
    <g fill="#001f3d" fill-opacity="1">
        <g transform="translate(484.345325, 475.652012)">
            <g>
                <path d="M 0.828125 3.34375 L 0.40625 1.3125 C 1.28125 1.207031 2.015625 1.066406 2.609375 0.890625 C 3.210938 0.722656 3.675781 0.453125 4 0.078125 L 3.609375 0.078125 C 2.703125 0.078125 1.988281 -0.0859375 1.46875 -0.421875 C 0.945312 -0.765625 0.6875 -1.34375 0.6875 -2.15625 C 0.6875 -2.59375 0.757812 -3.03125 0.90625 -3.46875 C 1.0625 -3.90625 1.273438 -4.304688 1.546875 -4.671875 C 1.816406 -5.035156 2.132812 -5.328125 2.5 -5.546875 C 2.863281 -5.765625 3.257812 -5.875 3.6875 -5.875 C 4.257812 -5.875 4.765625 -5.691406 5.203125 -5.328125 C 5.648438 -4.972656 5.992188 -4.5 6.234375 -3.90625 C 6.484375 -3.3125 6.609375 -2.664062 6.609375 -1.96875 L 7.765625 -1.96875 C 8.117188 -1.96875 8.378906 -1.867188 8.546875 -1.671875 C 8.710938 -1.484375 8.796875 -1.25 8.796875 -0.96875 C 8.796875 -0.675781 8.691406 -0.425781 8.484375 -0.21875 C 8.285156 -0.0195312 7.992188 0.078125 7.609375 0.078125 L 6.28125 0.078125 C 5.894531 1.085938 5.234375 1.863281 4.296875 2.40625 C 3.359375 2.957031 2.203125 3.269531 0.828125 3.34375 Z M 2.6875 -2.5 C 2.6875 -2.394531 2.722656 -2.285156 2.796875 -2.171875 C 2.867188 -2.066406 3.035156 -1.984375 3.296875 -1.921875 C 3.566406 -1.859375 3.988281 -1.847656 4.5625 -1.890625 C 4.550781 -2.453125 4.457031 -2.894531 4.28125 -3.21875 C 4.101562 -3.550781 3.875 -3.71875 3.59375 -3.71875 C 3.394531 -3.71875 3.226562 -3.644531 3.09375 -3.5 C 2.957031 -3.363281 2.851562 -3.195312 2.78125 -3 C 2.71875 -2.8125 2.6875 -2.644531 2.6875 -2.5 Z M 2.6875 -2.5 "/>
            </g>
        </g>
    </g>
    <g fill="#001f3d" fill-opacity="1">
        <g transform="translate(491.972011, 475.652012)">
            <g>
                <path d="M 0 0.078125 L 0.140625 -1.96875 C 1.191406 -1.96875 2.210938 -2.082031 3.203125 -2.3125 C 4.191406 -2.550781 5.070312 -2.925781 5.84375 -3.4375 C 5.394531 -3.695312 4.898438 -3.898438 4.359375 -4.046875 C 3.816406 -4.191406 3.226562 -4.265625 2.59375 -4.265625 C 2.351562 -4.265625 2.101562 -4.25 1.84375 -4.21875 C 1.582031 -4.195312 1.320312 -4.160156 1.0625 -4.109375 L 0.765625 -6.109375 C 1.046875 -6.171875 1.34375 -6.21875 1.65625 -6.25 C 1.96875 -6.289062 2.25 -6.3125 2.5 -6.3125 C 3.164062 -6.3125 3.757812 -6.222656 4.28125 -6.046875 C 4.800781 -5.878906 5.273438 -5.675781 5.703125 -5.4375 C 6.140625 -5.207031 6.546875 -5.003906 6.921875 -4.828125 C 7.296875 -4.660156 7.664062 -4.578125 8.03125 -4.578125 L 8.5625 -4.578125 L 8.796875 -2.640625 C 8.367188 -2.609375 7.972656 -2.523438 7.609375 -2.390625 C 7.253906 -2.253906 6.898438 -2.082031 6.546875 -1.875 C 6.191406 -1.664062 5.8125 -1.445312 5.40625 -1.21875 C 5.007812 -1 4.554688 -0.789062 4.046875 -0.59375 C 3.546875 -0.40625 2.960938 -0.242188 2.296875 -0.109375 C 1.640625 0.015625 0.875 0.078125 0 0.078125 Z M 4.359375 3.421875 C 4.078125 3.421875 3.835938 3.320312 3.640625 3.125 C 3.441406 2.9375 3.34375 2.703125 3.34375 2.421875 C 3.34375 2.140625 3.441406 1.894531 3.640625 1.6875 C 3.835938 1.476562 4.078125 1.375 4.359375 1.375 C 4.640625 1.375 4.878906 1.476562 5.078125 1.6875 C 5.285156 1.894531 5.390625 2.140625 5.390625 2.421875 C 5.390625 2.703125 5.285156 2.9375 5.078125 3.125 C 4.878906 3.320312 4.640625 3.421875 4.359375 3.421875 Z M 4.359375 3.421875 "/>
            </g>
        </g>
    </g>
</svg>