<?xml version="1.0" encoding="utf-8"?>
<!-- Generator: Adobe Illustrator 21.1.0, SVG Export Plug-In . SVG Version: 6.00 Build 0)  -->
<svg version="1.1" id="Layer_1" xmlns="http://www.w3.org/2000/svg" xmlns:xlink="http://www.w3.org/1999/xlink" x="0px" y="0px"
	 viewBox="0 0 24 24" style="enable-background:new 0 0 24 24;" xml:space="preserve">
<style type="text/css">
	.st0{fill:#000000;}
</style>
<g id="Twitter_Circle_1_">
	<g>
		<path class="st0" d="M23,5.3c-0.8,0.4-1.7,0.6-2.6,0.7c0.9-0.5,1.6-1.4,2-2.5c-0.9,0.5-1.8,0.9-2.9,1.1c-0.8-0.9-2-1.4-3.3-1.4
			c-2.5,0-4.5,2-4.5,4.4c0,0.3,0,0.7,0.1,1C8.1,8.5,4.8,6.7,2.5,4C2.1,4.7,1.9,5.4,1.9,6.2c0,1.5,0.8,2.9,2,3.7
			c-0.7,0-1.4-0.2-2-0.6c0,0,0,0,0,0.1c0,2.2,1.6,3.9,3.6,4.4C5.1,13.9,4.7,14,4.3,14c-0.3,0-0.6,0-0.8-0.1c0.6,1.8,2.2,3,4.2,3.1
			c-1.5,1.2-3.5,1.9-5.6,1.9c-0.4,0-0.7,0-1.1-0.1c2,1.3,4.4,2,6.9,2c8.3,0,12.8-6.8,12.8-12.6c0-0.2,0-0.4,0-0.6
			C21.6,7,22.4,6.2,23,5.3z"/>
	</g>
</g>
</svg>
